<svg width="40" height="40" viewBox="0 0 40 40" fill="none" xmlns="http://www.w3.org/2000/svg">
    <circle cx="20" cy="20" r="20" fill="white"/>
    <path d="M20.02 10.91C16.71 10.91 14.02 13.6 14.02 16.91V19.8C14.02 20.41 13.76 21.34 13.45 21.86L12.3 23.77C11.59 24.95 12.08 26.26 13.38 26.7C17.69 28.14 22.34 28.14 26.65 26.7C27.86 26.3 28.39 24.87 27.73 23.77L26.58 21.86C26.28 21.34 26.02 20.41 26.02 19.8V16.91C26.02 13.61 23.32 10.91 20.02 10.91Z" stroke="#191D31" stroke-width="1.5" stroke-miterlimit="10" stroke-linecap="round"/>
    <path d="M21.87 11.2C21.56 11.11 21.24 11.04 20.91 11C19.95 10.88 19.03 10.95 18.17 11.2C18.46 10.46 19.18 9.94 20.02 9.94C20.86 9.94 21.58 10.46 21.87 11.2Z" stroke="#191D31" stroke-width="1.5" stroke-miterlimit="10" stroke-linecap="round" stroke-linejoin="round"/>
    <path d="M23.02 27.06C23.02 28.71 21.67 30.06 20.02 30.06C19.2 30.06 18.44 29.72 17.9 29.18C17.36 28.64 17.02 27.88 17.02 27.06" stroke="#191D31" stroke-width="1.5" stroke-miterlimit="10"/>
    <circle cx="25" cy="13" r="3" fill="#F86A2E"/>
</svg>
