<svg width="16" height="17" viewBox="0 0 16 17" fill="none" xmlns="http://www.w3.org/2000/svg">
    <path d="M5.33325 4.33333C5.05992 4.33333 4.83325 4.10667 4.83325 3.83333V1.83333C4.83325 1.56 5.05992 1.33333 5.33325 1.33333C5.60659 1.33333 5.83325 1.56 5.83325 1.83333V3.83333C5.83325 4.10667 5.60659 4.33333 5.33325 4.33333Z" fill="#666876"/>
    <path d="M10.6667 4.33333C10.3934 4.33333 10.1667 4.10667 10.1667 3.83333V1.83333C10.1667 1.56 10.3934 1.33333 10.6667 1.33333C10.9401 1.33333 11.1667 1.56 11.1667 1.83333V3.83333C11.1667 4.10667 10.9401 4.33333 10.6667 4.33333Z" fill="#666876"/>
    <path d="M13.6666 7.05998H2.33325C2.05992 7.05998 1.83325 6.83331 1.83325 6.55998C1.83325 6.28664 2.05992 6.05998 2.33325 6.05998H13.6666C13.9399 6.05998 14.1666 6.28664 14.1666 6.55998C14.1666 6.83331 13.9399 7.05998 13.6666 7.05998Z" fill="#666876"/>
    <path d="M10.6667 15.6667H5.33333C2.9 15.6667 1.5 14.2667 1.5 11.8333V6.16667C1.5 3.73333 2.9 2.33333 5.33333 2.33333H10.6667C13.1 2.33333 14.5 3.73333 14.5 6.16667V11.8333C14.5 14.2667 13.1 15.6667 10.6667 15.6667ZM5.33333 3.33333C3.42667 3.33333 2.5 4.26 2.5 6.16667V11.8333C2.5 13.74 3.42667 14.6667 5.33333 14.6667H10.6667C12.5733 14.6667 13.5 13.74 13.5 11.8333V6.16667C13.5 4.26 12.5733 3.33333 10.6667 3.33333H5.33333Z" fill="#666876"/>
    <path d="M5.66667 10.1667C5.58 10.1667 5.49333 10.1467 5.41333 10.1133C5.33333 10.08 5.26001 10.0333 5.19334 9.97333C5.13334 9.90667 5.08666 9.83334 5.05332 9.75334C5.01999 9.67334 5 9.58667 5 9.50001C5 9.32667 5.07334 9.15335 5.19334 9.02668C5.26001 8.96668 5.33333 8.92 5.41333 8.88666C5.53333 8.83333 5.66667 8.82 5.80001 8.84667C5.84001 8.85333 5.88 8.86666 5.92 8.88666C5.96 8.9 6 8.92002 6.04 8.94668C6.07333 8.97335 6.10666 9.00001 6.13999 9.02668C6.16666 9.06001 6.19999 9.09334 6.21999 9.12667C6.24666 9.16667 6.26668 9.20667 6.28001 9.24667C6.30001 9.28667 6.31334 9.32667 6.32001 9.36667C6.32667 9.41333 6.33333 9.45334 6.33333 9.50001C6.33333 9.67334 6.25999 9.84667 6.13999 9.97333C6.01333 10.0933 5.84 10.1667 5.66667 10.1667Z" fill="#666876"/>
    <path d="M7.99992 10.1667C7.82659 10.1667 7.65326 10.0933 7.52659 9.97332C7.49992 9.93999 7.47326 9.90666 7.44659 9.87333C7.41993 9.83333 7.39991 9.79333 7.38658 9.75333C7.36658 9.71333 7.35324 9.67334 7.34658 9.63334C7.33991 9.58667 7.33325 9.54666 7.33325 9.5C7.33325 9.41333 7.35324 9.32666 7.38658 9.24666C7.41991 9.16666 7.46659 9.09333 7.52659 9.02667C7.71326 8.84 8.01326 8.77999 8.25326 8.88665C8.33992 8.91999 8.40658 8.96667 8.47325 9.02667C8.59325 9.15333 8.66659 9.32666 8.66659 9.5C8.66659 9.54666 8.65993 9.58667 8.65326 9.63334C8.64659 9.67334 8.63326 9.71333 8.61326 9.75333C8.59993 9.79333 8.57991 9.83333 8.55324 9.87333C8.52658 9.90666 8.49991 9.93999 8.47325 9.97332C8.40658 10.0333 8.33992 10.08 8.25326 10.1133C8.17326 10.1467 8.08659 10.1667 7.99992 10.1667Z" fill="#666876"/>
    <path d="M5.66667 12.5C5.58 12.5 5.49333 12.48 5.41333 12.4467C5.33333 12.4133 5.26001 12.3667 5.19334 12.3067C5.13334 12.24 5.08666 12.1733 5.05332 12.0867C5.01999 12.0067 5 11.92 5 11.8333C5 11.66 5.07334 11.4867 5.19334 11.36C5.26001 11.3 5.33333 11.2533 5.41333 11.22C5.66 11.1133 5.95333 11.1733 6.13999 11.36C6.16666 11.3933 6.19999 11.4267 6.21999 11.46C6.24666 11.5 6.26668 11.54 6.28001 11.58C6.30001 11.62 6.31334 11.66 6.32001 11.7067C6.32667 11.7467 6.33333 11.7933 6.33333 11.8333C6.33333 12.0067 6.25999 12.18 6.13999 12.3067C6.01333 12.4267 5.84 12.5 5.66667 12.5Z" fill="#666876"/>
</svg>
